<?xml version="1.0" encoding="UTF-8" standalone="no"?>
<!DOCTYPE svg PUBLIC "-//W3C//DTD SVG 1.1//EN"
 "http://www.w3.org/Graphics/SVG/1.1/DTD/svg11.dtd">
<!-- Generated by graphviz version 2.43.0 (0)
 -->
<!-- Title: halo Pages: 1 -->
<svg width="582pt" height="220pt"
 viewBox="0.00 0.00 582.00 220.00" xmlns="http://www.w3.org/2000/svg" xmlns:xlink="http://www.w3.org/1999/xlink">
<g id="graph0" class="graph" transform="scale(1 1) rotate(0) translate(4 216)">
<title>halo</title>
<g id="clust1" class="cluster">
<title>cluster_r0</title>
<path fill="#eef4fb" stroke="#3b6ea5" d="M20,-110C20,-110 554,-110 554,-110 560,-110 566,-116 566,-122 566,-122 566,-192 566,-192 566,-198 560,-204 554,-204 554,-204 20,-204 20,-204 14,-204 8,-198 8,-192 8,-192 8,-122 8,-122 8,-116 14,-110 20,-110"/>
<text text-anchor="middle" x="105" y="-189.6" font-family="Times,serif" font-size="13.00" fill="#3b6ea5">rank 0 &#160;· &#160;owns rows 0 … k</text>
</g>
<g id="clust2" class="cluster">
<title>cluster_r1</title>
<path fill="#fbf0e8" stroke="#a55b3b" d="M20,-8C20,-8 554,-8 554,-8 560,-8 566,-14 566,-20 566,-20 566,-90 566,-90 566,-96 560,-102 554,-102 554,-102 20,-102 20,-102 14,-102 8,-96 8,-90 8,-90 8,-20 8,-20 8,-14 14,-8 20,-8"/>
<text text-anchor="middle" x="115" y="-15.6" font-family="Times,serif" font-size="13.00" fill="#a55b3b">rank 1 &#160;· &#160;owns rows k+1 … n</text>
</g>
<!-- o0a -->
<g id="node1" class="node">
<title>o0a</title>
<ellipse fill="#cfe2f3" stroke="#3b6ea5" stroke-width="1.5" cx="44" cy="-146" rx="20" ry="20"/>
<text text-anchor="middle" x="44" y="-142.9" font-family="Helvetica,sans-Serif" font-size="12.00">0</text>
</g>
<!-- o0b -->
<g id="node2" class="node">
<title>o0b</title>
<ellipse fill="#cfe2f3" stroke="#3b6ea5" stroke-width="1.5" cx="206" cy="-146" rx="20" ry="20"/>
<text text-anchor="middle" x="206" y="-142.9" font-family="Helvetica,sans-Serif" font-size="12.00">1</text>
</g>
<!-- o0a&#45;&gt;o0b -->
<!-- o0bnd -->
<g id="node3" class="node">
<title>o0bnd</title>
<ellipse fill="#9fc5e8" stroke="#3b6ea5" stroke-width="1.5" cx="368" cy="-146" rx="20" ry="20"/>
<text text-anchor="middle" x="368" y="-142.9" font-family="Helvetica,sans-Serif" font-size="12.00">k</text>
</g>
<!-- o0b&#45;&gt;o0bnd -->
<!-- g0 -->
<g id="node4" class="node">
<title>g0</title>
<ellipse fill="#f0f0f0" stroke="#999999" stroke-width="1.5" stroke-dasharray="5,2" cx="530" cy="-146" rx="20" ry="20"/>
<text text-anchor="middle" x="530" y="-143.5" font-family="Helvetica,sans-Serif" font-size="10.00">ghost</text>
</g>
<!-- o0bnd&#45;&gt;g0 -->
<!-- g1 -->
<g id="node5" class="node">
<title>g1</title>
<ellipse fill="#f0f0f0" stroke="#999999" stroke-width="1.5" stroke-dasharray="5,2" cx="44" cy="-66" rx="20" ry="20"/>
<text text-anchor="middle" x="44" y="-63.5" font-family="Helvetica,sans-Serif" font-size="10.00">ghost</text>
</g>
<!-- o0bnd&#45;&gt;g1 -->
<g id="edge7" class="edge">
<title>o0bnd&#45;&gt;g1</title>
<path fill="none" stroke="#3b6ea5" stroke-width="1.6" stroke-dasharray="5,2" d="M355.15,-130.39C333.22,-102.97 283.32,-47.09 226,-26 171.67,-6.01 104.32,-33.87 69.07,-52.2"/>
<polygon fill="#3b6ea5" stroke="#3b6ea5" stroke-width="1.6" points="67.38,-49.93 61.65,-56.17 70.02,-54.86 67.38,-49.93"/>
</g>
<!-- g0&#45;&gt;o0bnd -->
<g id="edge9" class="edge">
<title>g0&#45;&gt;o0bnd</title>
<path fill="none" stroke="#888888" stroke-width="1.6" stroke-dasharray="1,5" d="M512.4,-155.59C484.28,-162.2 427.08,-162.75 394.06,-157.26"/>
<polygon fill="#888888" stroke="#888888" stroke-width="1.6" points="394.21,-154.44 385.82,-155.64 393.13,-159.93 394.21,-154.44"/>
</g>
<!-- o1bnd -->
<g id="node6" class="node">
<title>o1bnd</title>
<ellipse fill="#f9cb9c" stroke="#a55b3b" stroke-width="1.5" cx="206" cy="-66" rx="20" ry="20"/>
<text text-anchor="middle" x="206" y="-62.9" font-family="Helvetica,sans-Serif" font-size="12.00">k+1</text>
</g>
<!-- g1&#45;&gt;o1bnd -->
<!-- g1&#45;&gt;o1bnd -->
<g id="edge10" class="edge">
<title>g1&#45;&gt;o1bnd</title>
<path fill="none" stroke="#888888" stroke-width="1.6" stroke-dasharray="1,5" d="M61.82,-75.64C90.1,-82.22 147.31,-82.74 180.21,-77.22"/>
<polygon fill="#888888" stroke="#888888" stroke-width="1.6" points="181.1,-79.89 188.4,-75.59 180.01,-74.4 181.1,-79.89"/>
</g>
<!-- o1bnd&#45;&gt;g0 -->
<g id="edge8" class="edge">
<title>o1bnd&#45;&gt;g0</title>
<path fill="none" stroke="#a55b3b" stroke-width="1.6" stroke-dasharray="5,2" d="M223.65,-56.17C256.05,-38.35 329.56,-4.5 388,-26 441.06,-45.52 487.77,-94.87 511.81,-123.84"/>
<polygon fill="#a55b3b" stroke="#a55b3b" stroke-width="1.6" points="509.92,-125.96 517.15,-130.39 514.26,-122.42 509.92,-125.96"/>
</g>
<!-- o1a -->
<g id="node7" class="node">
<title>o1a</title>
<ellipse fill="#fce5cd" stroke="#a55b3b" stroke-width="1.5" cx="368" cy="-66" rx="20" ry="20"/>
<text text-anchor="middle" x="368" y="-62.9" font-family="Helvetica,sans-Serif" font-size="12.00">…</text>
</g>
<!-- o1bnd&#45;&gt;o1a -->
<!-- o1b -->
<g id="node8" class="node">
<title>o1b</title>
<ellipse fill="#fce5cd" stroke="#a55b3b" stroke-width="1.5" cx="530" cy="-66" rx="20" ry="20"/>
<text text-anchor="middle" x="530" y="-62.9" font-family="Helvetica,sans-Serif" font-size="12.00">n</text>
</g>
<!-- o1a&#45;&gt;o1b -->
</g>
</svg>
